<svg version="1.2" xmlns="http://www.w3.org/2000/svg" viewBox="0 0 512 512" width="512" height="512">
	<title>New Project</title>
	<style>
		.s0 { fill: #000000 } 
		.s1 { fill: #ffffff } 
	</style>
	<path id="Shape 3" class="s0" d="m0 75c0-41.4 33.6-75 75-75h362c41.4 0 75 33.6 75 75v362c0 41.4-33.6 75-75 75h-362c-41.4 0-75-33.6-75-75z"/>
	<path id="ম" class="s1" aria-label="ম"  d="m329.2 116.5h-72.7q-37.9 38.9-37.9 72.2 0 29.7 22.5 57.9 44.5 7.6 78.8 37.3l9.3 11.3zm0 298.5v-48.7q0-7.6-5.7-18.9-5.1-11.3-15.8-21.5-10.3-10.8-25.6-17.9-15.4-7.2-35.4-7.2h-20.5q37.4 11.3 37.4 39.4 0 36.4-52.2 59.9l-22.5 5.7q-54.3-44.6-54.3-82.5 0-44.5 54.3-71.1-20.5-47.1-20.5-57.9v-11.2q0-36.9 42-66.6h-98.3v-20h287.7v20h-33.3v221.7q19 23.5 19 40.9 0 10.8-13.8 21-13.4 10.3-41 14.9l-0.5-0.5q-0.5 0.5-1 0.5z"/>
</svg>